<?xml version="1.0" encoding="UTF-8" standalone="no"?><!-- Generator: Gravit.io --><svg xmlns="http://www.w3.org/2000/svg" xmlns:xlink="http://www.w3.org/1999/xlink" style="isolation:isolate" viewBox="0 0 512 512" width="512pt" height="512pt"><defs><clipPath id="_clipPath_XLl5Aj4LyzLR628ZcIy11CodeAlUZWwa"><rect width="512" height="512"/></clipPath></defs><g clip-path="url(#_clipPath_XLl5Aj4LyzLR628ZcIy11CodeAlUZWwa)"><g><clipPath id="_clipPath_uvajtxtg4LVQt0fwvLqZHXdlQY0HPEQR"><path d=" M -95 -85 L 621 -85 L 621 631 L -95 631 L -95 -85 Z " fill="rgb(255,255,255)"/></clipPath><g clip-path="url(#_clipPath_uvajtxtg4LVQt0fwvLqZHXdlQY0HPEQR)"><g><g><path d=" M 219.606 381.485 C 179.684 381.485 147.283 349.084 147.283 309.162 C 147.283 269.239 179.684 236.838 219.606 236.838 C 259.528 236.838 291.929 269.239 291.929 309.162 C 291.929 349.084 259.528 381.485 219.606 381.485 Z  M 219.606 164.515 C 193.28 164.515 168.546 171.603 147.283 183.97 L 147.283 56.03 C 147.283 36.069 131.082 19.869 111.121 19.869 C 91.16 19.869 74.96 36.069 74.96 56.03 L 74.96 417.646 C 74.96 437.608 91.16 453.808 111.121 453.808 C 125.803 453.808 138.459 445.057 144.101 432.473 C 166.087 445.996 191.979 453.808 219.606 453.808 C 299.523 453.808 364.253 389.079 364.253 309.162 C 364.253 229.244 299.523 164.515 219.606 164.515 Z " fill="rgb(145,92,238)"/></g><g><path d=" M 450.814 49.269 L 450.814 343.27 C 450.814 359.499 434.614 372.67 414.653 372.67 C 394.692 372.67 378.491 359.499 378.491 343.27 L 378.491 273 L 378.491 49.269 C 378.491 33.04 394.692 19.869 414.653 19.869 C 434.614 19.869 450.814 33.04 450.814 49.269 Z " fill="rgb(145,92,238)"/></g><g><path d=" M 450.814 417.646 C 450.814 437.608 434.614 453.808 414.653 453.808 C 394.692 453.808 378.491 437.608 378.491 417.646 C 378.491 397.685 394.692 381.485 414.653 381.485 C 434.614 381.485 450.814 397.685 450.814 417.646 Z " fill="rgb(145,92,238)"/></g></g></g></g></g></svg>