<?xml version="1.0" encoding="UTF-8" standalone="no"?><!-- Generator: Gravit.io --><svg xmlns="http://www.w3.org/2000/svg" xmlns:xlink="http://www.w3.org/1999/xlink" style="isolation:isolate" viewBox="0 0 48 48" width="48pt" height="48pt"><defs><clipPath id="_clipPath_8XmQOR5Nlld9fvrvCwoXzcuCnkN6ZhEf"><rect width="48" height="48"/></clipPath></defs><g clip-path="url(#_clipPath_8XmQOR5Nlld9fvrvCwoXzcuCnkN6ZhEf)"><g><clipPath id="_clipPath_9RAtfaDIVM70XFy73BRbZA5Cwqw7Fdnq"><path d=" M -6.25 -6.25 L 54.25 -6.25 L 54.25 54.25 L -6.25 54.25 L -6.25 -6.25 Z " fill="rgb(255,255,255)"/></clipPath><g clip-path="url(#_clipPath_9RAtfaDIVM70XFy73BRbZA5Cwqw7Fdnq)"><g><g><path d=" M 20.333 33.167 C 16.96 33.167 14.222 30.429 14.222 27.056 C 14.222 23.682 16.96 20.944 20.333 20.944 C 23.707 20.944 26.444 23.682 26.444 27.056 C 26.444 30.429 23.707 33.167 20.333 33.167 Z  M 20.333 14.833 C 18.109 14.833 16.019 15.432 14.222 16.477 L 14.222 5.667 C 14.222 3.98 12.853 2.611 11.167 2.611 C 9.48 2.611 8.111 3.98 8.111 5.667 L 8.111 36.222 C 8.111 37.909 9.48 39.278 11.167 39.278 C 12.407 39.278 13.477 38.538 13.953 37.475 C 15.811 38.618 17.999 39.278 20.333 39.278 C 27.086 39.278 32.556 33.808 32.556 27.056 C 32.556 20.303 27.086 14.833 20.333 14.833 Z " fill="rgb(145,92,238)"/></g><g><path d=" M 39.87 5.095 L 39.87 29.938 C 39.87 31.309 38.501 32.422 36.814 32.422 C 35.128 32.422 33.759 31.309 33.759 29.938 L 33.759 5.095 C 33.759 3.724 35.128 2.611 36.814 2.611 C 38.501 2.611 39.87 3.724 39.87 5.095 Z " fill="rgb(145,92,238)"/></g><g><path d=" M 39.87 36.222 C 39.87 37.909 38.501 39.278 36.814 39.278 C 35.128 39.278 33.759 37.909 33.759 36.222 C 33.759 34.536 35.128 33.167 36.814 33.167 C 38.501 33.167 39.87 34.536 39.87 36.222 Z " fill="rgb(145,92,238)"/></g></g></g></g></g></svg>